<?xml version="1.0" standalone="no"?>
<!DOCTYPE svg PUBLIC "-//W3C//DTD SVG 20010904//EN"
 "http://www.w3.org/TR/2001/REC-SVG-20010904/DTD/svg10.dtd">
<svg version="1.0" xmlns="http://www.w3.org/2000/svg"
 width="640.000000pt" height="1280.000000pt" viewBox="0 0 640.000000 1280.000000"
 preserveAspectRatio="xMidYMid meet">
<metadata>
Created by potrace 1.15, written by Peter Selinger 2001-2017
</metadata>
<g transform="translate(0.000000,1280.000000) scale(0.100000,-0.100000)"
fill="#3f51b5" stroke="none">
<path d="M3169 12745 c-85 -58 -150 -86 -286 -121 -113 -28 -305 -57 -344 -52
-16 3 -29 1 -29 -4 0 -4 -19 -8 -42 -8 -123 -1 -273 -36 -387 -91 -106 -52
-201 -143 -249 -240 -28 -58 -38 -69 -75 -84 -70 -29 -165 -31 -222 -6 -53 24
-60 22 -50 -9 13 -41 65 -88 116 -105 l50 -17 -48 -41 c-159 -136 -265 -298
-306 -467 -18 -73 -34 -260 -22 -260 4 0 30 20 57 45 53 47 75 57 64 28 -22
-56 -48 -267 -53 -423 -7 -206 12 -383 57 -551 l29 -105 -27 -55 c-23 -45 -27
-67 -27 -135 0 -76 2 -84 37 -137 67 -101 187 -143 293 -103 27 11 50 14 59 9
8 -4 40 -49 71 -98 157 -250 344 -436 574 -572 55 -32 100 -61 101 -64 0 -3
-24 -16 -52 -30 -90 -42 -198 -118 -277 -195 -74 -73 -177 -134 -228 -134 -42
-1 -154 -50 -230 -102 -45 -31 -91 -59 -104 -63 -15 -5 -18 -9 -9 -15 10 -6 1
-26 -32 -76 -80 -121 -125 -228 -175 -414 -37 -139 -43 -170 -63 -338 -9 -85
-23 -159 -29 -165 -19 -19 -13 -45 12 -49 19 -3 22 -8 19 -38 -4 -39 -229
-1718 -266 -1985 -17 -118 -31 -184 -47 -215 l-22 -45 12 -369 c7 -204 17
-379 21 -391 4 -11 15 -26 23 -33 8 -7 21 -36 27 -63 16 -64 51 -106 100 -119
35 -9 40 -15 46 -48 14 -79 51 -122 107 -122 47 0 92 40 102 91 3 19 3 103 -2
187 -4 83 -5 152 -2 152 8 0 103 -102 132 -142 12 -16 24 -28 27 -28 4 0 15
27 25 61 10 33 26 66 35 72 29 20 43 57 36 96 -3 20 -42 116 -86 214 l-80 179
40 291 c50 367 136 1009 200 1497 28 206 54 389 59 405 6 20 10 -59 10 -240 0
-148 0 -726 1 -1282 l0 -1013 90 0 90 0 0 -1405 0 -1405 -55 0 -55 0 0 -185 0
-184 152 -3 c138 -3 153 -5 156 -21 3 -16 -1 -17 -32 -12 -33 7 -38 4 -103
-62 -63 -63 -181 -143 -213 -143 -21 0 -189 -69 -272 -112 -136 -70 -214 -161
-207 -241 2 -20 -5 -46 -18 -67 -32 -54 -36 -76 -18 -113 28 -60 154 -100 395
-127 224 -25 349 1 750 153 80 31 181 65 225 77 127 35 149 44 163 70 18 34
10 136 -15 185 -11 22 -32 90 -47 150 -15 61 -31 120 -36 133 -10 24 -39 29
-57 11 -14 -14 -27 40 -21 87 l3 29 183 3 182 2 -2 183 -3 182 -53 3 -53 3 6
122 c6 119 85 2590 85 2655 l0 32 154 0 153 0 7 -183 c4 -100 22 -675 41
-1277 19 -602 36 -1152 39 -1222 l6 -127 -52 -3 -53 -3 -2 -180 -2 -180 182
-5 182 -5 3 -63 c3 -57 -7 -78 -23 -52 -8 13 -42 13 -50 0 -9 -15 -65 -238
-65 -260 0 -10 -6 -20 -14 -23 -19 -8 -39 -100 -33 -155 6 -59 26 -75 119 -97
77 -19 236 -73 433 -149 143 -55 291 -93 400 -101 92 -7 256 7 391 35 193 40
253 108 182 205 -15 20 -21 41 -19 68 3 53 -31 118 -85 166 -50 44 -184 115
-284 151 -36 13 -67 27 -70 30 -3 4 -22 10 -42 13 -50 8 -177 96 -230 159 -40
48 -43 50 -80 44 -33 -6 -38 -4 -38 14 0 19 6 20 155 20 l155 0 0 185 0 185
-55 0 -55 0 0 1405 0 1405 70 0 70 0 0 153 c0 1044 8 2107 16 2131 l10 30 16
-35 c10 -21 61 -376 137 -944 67 -500 124 -929 127 -952 5 -36 -4 -64 -77
-230 -92 -208 -99 -245 -60 -287 18 -19 35 -26 64 -26 60 0 94 26 139 108 22
40 41 72 42 70 1 -2 -3 -102 -9 -223 -14 -265 -7 -302 60 -331 66 -27 126 21
141 114 6 37 10 42 39 48 56 10 96 61 110 138 4 21 13 40 20 43 7 2 18 16 24
31 13 33 42 720 31 765 -4 17 -14 46 -23 64 -16 31 -34 152 -166 1138 -23 165
-63 466 -91 670 -27 203 -50 380 -50 392 0 16 6 23 20 23 22 0 28 28 9 47 -6
6 -17 64 -25 129 -8 66 -28 184 -45 264 -17 80 -33 163 -36 185 -3 22 -11 47
-18 55 -7 8 -16 26 -20 40 -15 48 -83 189 -114 234 -82 119 -221 224 -340 256
-75 20 -214 31 -223 17 -4 -6 -9 -9 -11 -7 -2 3 -21 30 -42 60 -90 129 -185
215 -287 261 -28 12 -38 29 -18 29 14 0 152 92 226 151 208 165 404 458 498
745 l27 81 73 -5 c89 -5 135 8 188 56 62 56 82 104 83 192 0 66 -4 82 -31 130
-17 30 -50 70 -74 88 l-43 33 -2 217 c-1 183 -4 233 -23 317 -31 146 -76 273
-143 414 -33 68 -57 126 -55 129 11 11 134 13 170 3 22 -6 42 -9 44 -6 3 2 -7
23 -21 47 -30 52 -117 136 -175 169 -23 13 -42 26 -42 29 0 3 16 14 36 25 20
11 54 40 76 65 38 42 98 136 98 153 0 4 -18 -4 -39 -19 -47 -31 -121 -54 -173
-54 -41 0 -149 33 -181 55 -18 13 -16 15 30 38 44 23 130 103 121 113 -2 2
-56 17 -120 33 -184 48 -353 119 -525 222 -194 117 -372 144 -573 88 -38 -10
-71 -19 -73 -19 -2 0 -4 39 -4 88 1 56 -4 98 -14 118 l-14 31 -76 -52z m-519
-3852 c-1 -5 -35 -33 -78 -64 -70 -51 -83 -57 -142 -62 l-65 -6 25 19 c38 29
135 80 193 101 59 21 67 22 67 12z m1110 -93 l25 -20 -26 0 c-18 0 -28 6 -32
20 -6 25 1 25 33 0z"/>
<path d="M3123 3 c53 -2 141 -2 195 0 53 1 9 3 -98 3 -107 0 -151 -2 -97 -3z"/>
</g>
</svg>
